<?xml version="1.0" standalone="no"?>
<!DOCTYPE svg PUBLIC "-//W3C//DTD SVG 20010904//EN"
 "http://www.w3.org/TR/2001/REC-SVG-20010904/DTD/svg10.dtd">
<svg version="1.0" xmlns="http://www.w3.org/2000/svg"
 width="200.000000pt" height="200.000000pt" viewBox="0 0 200.000000 200.000000"
 preserveAspectRatio="xMidYMid meet">
<metadata>
Created by potrace 1.16, written by Peter Selinger 2001-2019
</metadata>
<g transform="translate(0.000000,200.000000) scale(0.100000,-0.100000)"
fill="#000000" stroke="none">
<path d="M1006 1488 c-3 -7 -7 -34 -10 -60 -11 -91 -73 -181 -168 -247 l-48
-32 0 -239 0 -238 65 -22 c104 -35 210 -49 357 -50 l138 0 24 38 c54 81 106
303 106 449 l0 74 -35 15 c-19 8 -92 19 -162 25 -71 6 -129 12 -131 13 -1 2 3
27 9 56 18 83 -1 168 -46 214 -20 19 -94 22 -99 4z m85 -68 c25 -47 25 -135
-1 -202 -11 -29 -20 -54 -20 -55 0 -2 48 -3 108 -3 112 0 230 -15 246 -30 12
-12 -9 -204 -33 -295 -10 -39 -30 -98 -46 -133 l-28 -62 -107 0 c-110 0 -234
17 -327 45 l-53 16 0 214 0 213 35 22 c84 52 164 173 173 263 6 58 25 60 53 7z"/>
<path d="M587 1192 c-15 -16 -17 -51 -17 -278 0 -189 3 -263 12 -272 7 -7 36
-12 64 -12 84 0 84 0 84 286 0 229 -1 243 -21 268 -16 21 -29 26 -63 26 -29 0
-48 -6 -59 -18z m81 -30 c9 -7 12 -63 10 -248 l-3 -239 -30 0 -30 0 -3 239
c-2 242 -1 256 33 256 6 0 16 -4 23 -8z"/>
</g>
</svg>
